<svg width="1012" height="489" viewBox="0 0 1012 489" fill="none" xmlns="http://www.w3.org/2000/svg">
<path d="M856.291 367.956L682.091 368.026C678.061 368.026 674.931 364.826 674.931 361.086V306.426C674.931 302.946 678.311 299.616 682.051 299.606L819.031 299.496C821.751 299.496 825.031 294.926 825.551 292.746C826.131 290.296 822.221 284.756 819.201 284.756L750.631 284.706C735.001 284.696 719.561 284.386 705.331 277.056C684.921 266.536 674.771 245.096 674.921 222.326L675.141 187.496C675.321 159.156 696.241 130.756 727.281 130.496L907.841 128.966C912.371 128.926 915.231 132.326 915.241 136.266L915.291 189.986C915.291 194.196 913.001 197.876 907.861 197.876L772.561 197.956C768.821 197.956 765.771 203.216 766.021 205.886C766.411 210.036 770.161 212.766 774.911 212.756L853.151 212.696C859.671 212.696 866.201 213.466 872.451 215.336C894.771 221.986 911.531 239.596 914.241 264.216C916.091 280.976 915.661 297.956 914.451 315.266C912.411 344.616 887.181 367.926 856.311 367.946L856.291 367.956Z" fill="white"/>
<path d="M510.5 291.446L510.48 361.056C510.48 364.666 507.11 368.006 503.52 368.006L425.98 368.026C423.5 368.026 419.48 364.956 419.48 362.036V136.626C419.48 132.166 423.48 129.266 427.65 129.266L600.33 129.336C626.92 129.346 647.77 144.956 656.59 169.046C658 172.906 658.81 176.956 659.1 181.056C660.31 198.136 660.3 215.216 659.1 232.226C658.74 237.326 657.65 242.366 655.68 247.096C646 270.326 624.83 284.626 599.16 284.616L517.54 284.586C514.96 284.586 510.5 288.396 510.5 291.456V291.446ZM565.29 212.216C568.06 212.186 570.63 206.586 570.23 204.526C569.83 202.466 566.47 198.216 564.27 198.206L517.71 197.876C513.26 197.846 509.66 203.506 510.76 206.526C512.41 211.096 515.77 212.696 520.49 212.646L565.3 212.216H565.29Z" fill="white"/>
<path d="M347.56 368.886L266.74 369.166C234.17 369.276 209.53 343.576 209.36 311.176L208.74 191.246C208.58 161.096 230.01 133.826 260.24 131.786C288.24 129.906 316.11 130.606 344.08 130.576C354.05 130.566 363.95 132.706 372.77 137.346C392.63 147.796 404.04 167.006 404.13 191.626L404.56 310.176C404.68 342.096 380.11 368.786 347.55 368.896L347.56 368.886ZM315.01 292.746L314.66 207.606C314.64 202.996 310.96 199.516 306.47 199.446C303.12 199.396 299.69 203.836 299.71 207.696L300.23 293.586C300.26 297.746 304.84 301.146 308.17 300.846C311.17 300.576 315.03 297.036 315.01 292.746Z" fill="white"/>
<path d="M310.461 482.546L310.251 424.666C310.251 423.716 308.871 421.816 308.291 421.156C301.191 412.926 306.081 483.216 304.491 487.056C290.441 487.806 278.261 487.756 264.231 487.106L264.111 425.536C264.111 423.826 262.521 421.866 261.781 421.316C260.791 420.586 257.401 423.156 257.401 424.496L257.371 487.566L215.471 487.246L215.531 379.696L280.661 379.876L280.941 401.786L284.711 405.186C285.561 405.956 287.381 401.806 287.431 400.486L288.271 379.906L351.861 380.016L352.131 487.146L317.061 487.816C314.951 487.856 310.481 485.806 310.471 482.516L310.461 482.546Z" fill="#FFDB01"/>
<path d="M680.391 449.296L623.1 449.716C621.72 449.726 619.351 451.336 618.591 451.876C617.561 452.596 620.231 456.416 621.901 456.426L684.891 456.626L686.87 482.116C685.9 484.836 684.53 487.286 682.3 488.866L577.591 488.606L577.521 381.346L684.771 381.066C686.981 391.796 687.63 402.396 684.38 413.006L623.461 413.196C622.001 413.196 619.611 414.936 618.961 415.496C618.101 416.236 620.201 419.996 621.591 420.006L679.99 420.366L680.401 449.306L680.391 449.296Z" fill="#FFDB01"/>
<path d="M799.41 452.806C802.63 452.836 802.6 461.046 802.63 463.846L802.82 481.976C802.84 483.926 800.57 488.746 798.7 488.746H721.38C706.52 488.756 692.5 477.486 692.59 462.396C692.71 442.186 691.65 423.516 692.87 403.256C693.51 392.606 708.06 381.226 718.21 381.236L799.89 381.286C804.25 379.586 802.72 413.946 800.75 417.306L735.78 417.526C733.5 429.246 733.47 439.346 735.15 452.206L799.4 452.806H799.41Z" fill="#FFDB01"/>
<path d="M896.221 488.496L856.051 488.196L855.991 456.256C855.991 455.066 853.481 453.946 850.561 453.526L850.451 472.056C850.421 477.656 849.721 482.346 848.391 488.626L808.901 488.346L808.811 386.506C808.811 384.836 810.771 380.996 812.551 381.006L848.511 381.066C852.731 396.026 847.311 407.916 851.641 417.676C855.581 416.056 855.921 412.726 855.981 409.096L856.461 381.006L896.371 381.126L896.211 488.506L896.221 488.496Z" fill="#FFDB01"/>
<path d="M446.401 443.726C438.361 446.456 425.521 441.956 423.091 446.986L422.511 487.206H382.491L382.161 445.146L358.541 444.236L358.391 380.046L397.351 379.686C398.591 382.906 399.211 386.696 399.251 390.046L399.451 408.526C399.461 409.676 400.031 411.746 400.341 412.646C400.711 413.756 405.481 412.026 405.521 410.746L406.361 380.186L446.061 379.656L446.401 443.736V443.726Z" fill="#FFDB01"/>
<path d="M550.301 417.956L549.841 488.326L509.851 488.216L509.561 418.096L489.601 416.936L489.461 380.916L566.911 380.996C574.001 380.996 570.891 411.556 570.991 416.556L550.321 417.966L550.301 417.956Z" fill="#FFDB01"/>
<path d="M207.711 123.216C206.581 128.726 200.521 132.976 196.061 132.436C190.331 131.746 186.101 125.996 187.441 120.076L192.151 99.2457C193.181 94.6957 199.201 90.9757 203.561 91.4157C207.071 91.7657 212.931 97.6357 212.181 101.326L207.711 123.216Z" fill="#0000A9" stroke="#FFDB01" stroke-width="3" stroke-miterlimit="10"/>
<path d="M238.47 147.396C234.86 149.036 228.16 144.636 227.17 141.556C225.72 137.066 228.22 130.596 232.7 128.496L251.89 119.506C256.68 117.266 262.95 119.166 265.09 122.536C268.42 127.776 265.89 134.936 259.97 137.626L238.48 147.386L238.47 147.396Z" fill="#0000A9" stroke="#FFDB01" stroke-width="3" stroke-miterlimit="10"/>
<path d="M149.24 139.606C146.65 133.406 144.88 128.686 142.73 122.196C141.71 119.136 146.9 112.696 150.07 111.626C153.46 110.476 160.57 112.856 161.98 116.456L167.29 130.036C168.79 133.866 166.33 140.306 163.22 142.136C159.21 144.486 150.88 143.516 149.25 139.616L149.24 139.606Z" fill="#0000A9" stroke="#FFDB01" stroke-width="3" stroke-miterlimit="10"/>
<path d="M250.041 195.926L237.371 188.906C234.501 187.316 233.141 180.106 234.451 177.036C236.081 173.226 243.521 169.456 247.691 171.706L260.791 178.796C263.941 180.496 264.881 187.896 263.051 191.326C261.191 194.806 253.821 198.016 250.041 195.916V195.926Z" fill="#0000A9" stroke="#FFDB01" stroke-width="3" stroke-miterlimit="10"/>
<path d="M67.0498 244.986C57.8598 248.016 58.0098 274.486 57.5898 283.056L81.2598 255.916C77.7198 251.136 72.8498 246.966 67.0498 244.986Z" fill="#FFDB01"/>
<path d="M228.12 321.136C202.32 315.756 188.38 330.796 184.25 320.386C179.16 307.556 208.25 307.346 217.53 305.786C208.54 289.526 173.24 298.526 156.72 302.026C152.66 302.886 148.5 300.596 147.86 297.046C147.38 294.376 149.57 289.426 152.81 288.836L187.08 282.556C165.55 266.706 130.73 298.006 125.8 283.506C124.87 280.756 126.78 275.776 130.03 274.706L153.29 267.016C166.68 246.626 179.07 227.076 188.3 205.036C191.07 198.426 197.68 179.646 190.12 176.196C181.69 172.356 166.5 186.346 159.68 193.056C118.55 233.596 80.0702 275.956 44.6802 321.416C32.4802 337.086 22.7502 353.536 16.5102 371.626C12.1502 384.276 14.0302 395.576 21.9502 405.676C43.1602 432.706 71.6602 453.866 104.8 465.626C142.62 479.046 171.03 450.306 190.07 422.236C190.81 422.006 192.3 421.296 192.84 421.066C193.38 420.836 192.92 418.426 193.4 417.666L221.87 372.956C224.51 368.816 228.31 367.516 231.56 368.846C235.31 370.376 236.56 375.096 234.36 378.736L218.64 404.786C224.11 407.786 228.39 404.306 231.06 399.736C241.48 381.926 261.88 328.166 228.12 321.136Z" fill="#FFDB01"/>
<path d="M196.81 439.516C174.89 470.456 141.19 493.806 101.75 480.166C65.5705 467.656 34.3305 444.456 11.5605 414.846C2.86047 403.536 -0.459536 390.816 2.62046 376.806C8.81046 348.636 27.7505 323.886 45.2405 301.086C45.1105 282.576 43.3505 258.616 53.0905 242.056C58.1705 233.426 68.1805 230.186 77.0005 234.596C82.6305 237.416 87.4105 241.616 92.3205 246.336C114.24 222.416 135.98 198.666 160.16 176.806C167.09 170.546 174.36 165.706 183.15 163.676C196.05 160.696 207.31 168.436 208.66 181.376C211.14 205.026 186.92 243.376 173.26 265.256C187.57 265.776 200.28 272.146 207.42 284.686C221.41 287.156 231.76 296.556 236.68 310.056C270.62 322.026 263.65 357.716 254.81 385.296C251.48 395.686 246.96 405.696 239.81 413.656C232.1 422.246 221.25 423.426 212.04 418.016L196.78 439.546L196.81 439.516ZM229.49 322.526C203.69 317.146 189.75 332.186 185.62 321.776C180.53 308.946 209.62 308.736 218.9 307.176C209.91 290.916 174.61 299.916 158.09 303.416C154.02 304.276 149.87 301.986 149.23 298.436C148.75 295.766 150.94 290.816 154.18 290.226L188.45 283.946C166.92 268.096 132.1 299.396 127.17 284.896C126.24 282.146 128.15 277.166 131.4 276.096L154.66 268.406C168.05 248.016 180.44 228.466 189.67 206.426C192.44 199.816 199.05 181.036 191.49 177.586C183.06 173.746 167.87 187.736 161.05 194.446C119.92 234.986 81.4405 277.346 46.0505 322.806C33.8505 338.476 24.1205 354.926 17.8805 373.016C13.5205 385.666 15.4005 396.966 23.3205 407.066C44.5305 434.096 73.0305 455.256 106.17 467.016C143.99 480.436 172.4 451.696 191.44 423.626C192.18 423.396 193.66 422.686 194.21 422.456C194.76 422.226 194.29 419.816 194.77 419.056L223.24 374.346C225.88 370.206 229.68 368.906 232.93 370.236C236.68 371.766 237.93 376.486 235.73 380.126L220.01 406.176C225.48 409.176 229.76 405.696 232.43 401.126C242.85 383.316 263.25 329.556 229.49 322.526ZM58.9505 284.456L82.6205 257.316C79.0805 252.536 74.2105 248.366 68.4105 246.386C59.2205 249.416 59.3705 275.886 58.9505 284.456Z" fill="#0000A9" stroke="#FFDB01" stroke-width="3" stroke-miterlimit="10"/>
<path d="M924.36 74.3257L957.8 33.2357" stroke="#FFDB01" stroke-width="7" stroke-miterlimit="10"/>
<path d="M875.051 53.0857L878.921 0.255737" stroke="#FFDB01" stroke-width="7" stroke-miterlimit="10"/>
<path d="M961.051 119.076L1009.65 98.0157" stroke="#FFDB01" stroke-width="7" stroke-miterlimit="10"/>
</svg>
